<svg width="24" height="24" viewBox="0 0 24 24" fill="none" xmlns="http://www.w3.org/2000/svg">
<path d="M5.95 13.9C5.4172 13.9 4.9588 13.7084 4.5748 13.3252C4.1916 12.942 4 12.4836 4 11.95C4 11.4164 4.1916 10.958 4.5748 10.5748C4.9588 10.1916 5.4172 10 5.95 10C6.4836 10 6.942 10.1916 7.3252 10.5748C7.7084 10.958 7.9 11.4164 7.9 11.95C7.9 12.4836 7.7084 12.942 7.3252 13.3252C6.942 13.7084 6.4836 13.9 5.95 13.9ZM12.0004 13.9C11.4668 13.9 11.0084 13.7084 10.6252 13.3252C10.242 12.942 10.0504 12.4836 10.0504 11.95C10.0504 11.4164 10.242 10.958 10.6252 10.5748C11.0084 10.1916 11.4668 10 12.0004 10C12.534 10 12.9924 10.1916 13.3756 10.5748C13.7588 10.958 13.9504 11.4164 13.9504 11.95C13.9504 12.4836 13.7588 12.942 13.3756 13.3252C12.9924 13.7084 12.534 13.9 12.0004 13.9ZM18.0508 13.9C17.5172 13.9 17.0588 13.7084 16.6756 13.3252C16.2924 12.942 16.1008 12.4836 16.1008 11.95C16.1008 11.4164 16.2924 10.958 16.6756 10.5748C17.0588 10.1916 17.5172 10 18.0508 10C18.5836 10 19.042 10.1916 19.426 10.5748C19.8092 10.958 20.0008 11.4164 20.0008 11.95C20.0008 12.4836 19.8092 12.942 19.426 13.3252C19.042 13.7084 18.5836 13.9 18.0508 13.9Z" fill="white"/>
</svg>
