<svg width="24" height="24" viewBox="0 0 24 24" fill="none" xmlns="http://www.w3.org/2000/svg">
<g filter="url(#filter0_b_53_8)">
<rect width="24" height="24" rx="4" fill="white"/>
</g>
<path d="M19.3689 9.97516L19.3196 9.86025L19.2427 9.68104L19.0648 9.60123L18.9214 9.53692L19.0716 9.46685L19.2428 9.38695L19.3184 9.21378L19.3689 9.09804L19.4243 9.22017L19.4998 9.38686L19.6651 9.46538L19.8158 9.53695L19.672 9.60261L19.5 9.68116L19.423 9.85391L19.3689 9.97516ZM17 6.7931L16.6745 6.08443L16.5993 5.92048L16.4366 5.84237L15.7146 5.49555L16.4369 5.1482L16.5993 5.07007L16.6745 4.90624L17 4.19757L17.3259 4.90646L17.4011 5.07012L17.5635 5.1482L18.2857 5.49555L17.5637 5.84237L17.4012 5.92042L17.3259 6.08422L17 6.7931ZM5.08935 6.77419L5.08944 6.77409C6.14636 5.68053 7.439 5.13672 9 5.13672C10.5317 5.13672 11.8158 5.67887 12.8819 6.77518C13.9467 7.87027 14.4798 9.20573 14.4798 10.8135C14.4798 11.8476 14.2312 12.7951 13.7352 13.6655L13.7351 13.6656C13.2606 14.4986 12.6234 15.1661 11.8184 15.6733H6.16155C5.35711 15.1661 4.71979 14.4986 4.24465 13.6655C3.7486 12.7951 3.5 11.8476 3.5 10.8135C3.5 9.20488 4.03054 7.8691 5.08935 6.77419ZM6.2464 14.8595L6.37789 14.9551H6.54048H11.4595H11.6221L11.7536 14.8595C12.4148 14.3786 12.9261 13.7862 13.2776 13.0832L13.2779 13.0827C13.6271 12.3822 13.7998 11.6233 13.7998 10.8135C13.7998 9.44912 13.3408 8.27073 12.4221 7.30861L12.0605 7.6539L12.4221 7.30861C11.4995 6.34233 10.348 5.85493 9 5.85493C7.65211 5.85493 6.4982 6.34221 5.56963 7.30722C4.64348 8.26905 4.18 9.44789 4.18 10.8135C4.18 11.6251 4.35706 12.3854 4.71454 13.0867L4.71464 13.0869C5.07237 13.7879 5.58598 14.3792 6.2464 14.8595ZM9 20.5C8.69674 20.5 8.44824 20.396 8.22759 20.1703C8.13414 20.0748 8.06126 19.9734 8.00819 19.8643H9.97517C9.92294 19.9753 9.85101 20.078 9.75887 20.1744C9.54601 20.3965 9.30279 20.5 9 20.5ZM6.30032 18.1279V17.4097H11.6795V18.1279H6.30032Z" fill="black" stroke="black"/>
<defs>
<filter id="filter0_b_53_8" x="-4" y="-4" width="32" height="32" filterUnits="userSpaceOnUse" color-interpolation-filters="sRGB">
<feFlood flood-opacity="0" result="BackgroundImageFix"/>
<feGaussianBlur in="BackgroundImage" stdDeviation="2"/>
<feComposite in2="SourceAlpha" operator="in" result="effect1_backgroundBlur_53_8"/>
<feBlend mode="normal" in="SourceGraphic" in2="effect1_backgroundBlur_53_8" result="shape"/>
</filter>
</defs>
</svg>
